<mxfile host="app.diagrams.net" modified="2023-12-16T11:13:09.930Z" agent="Mozilla/5.0 (Windows NT 10.0; Win64; x64) AppleWebKit/537.36 (KHTML, like Gecko) Chrome/118.0.5993.2383 YaBrowser/23.11.0.2383 Yowser/2.5 Safari/537.36" version="22.1.5" etag="e-6abHlXrNk8SQGxWU42" type="device">
  <diagram id="M_AETcQdwQwAWOD9jbfJ" name="Страница — 1">
    <mxGraphModel dx="875" dy="479" grid="1" gridSize="10" guides="1" tooltips="1" connect="1" arrows="1" fold="1" page="1" pageScale="1" pageWidth="827" pageHeight="1169" math="0" shadow="0">
      <root>
        <mxCell id="0" />
        <mxCell id="1" parent="0" />
        <mxCell id="FCP7pwKW39gZ4OMSLewV-25" value="&lt;div style=&quot;font-size: 20px;&quot;&gt;&lt;font style=&quot;font-size: 20px;&quot;&gt;«WebApp»&lt;/font&gt;&lt;/div&gt;&lt;div style=&quot;font-size: 20px;&quot;&gt;&lt;font style=&quot;font-size: 20px;&quot;&gt;Приложение для просмотра новостей о футболе ВШЭ&lt;font style=&quot;font-size: 20px;&quot;&gt;&lt;br&gt;&lt;/font&gt;&lt;/font&gt;&lt;/div&gt;" style="html=1;whiteSpace=wrap;align=left;verticalAlign=top;fontStyle=1" vertex="1" parent="1">
          <mxGeometry x="156" y="40" width="520" height="620" as="geometry" />
        </mxCell>
        <mxCell id="FCP7pwKW39gZ4OMSLewV-26" value="Пользователь" style="shape=umlActor;verticalLabelPosition=bottom;verticalAlign=top;html=1;outlineConnect=0;" vertex="1" parent="1">
          <mxGeometry x="66" y="280" width="30" height="60" as="geometry" />
        </mxCell>
        <mxCell id="FCP7pwKW39gZ4OMSLewV-27" value="Разработчик&lt;br&gt;сайта" style="shape=umlActor;verticalLabelPosition=bottom;verticalAlign=top;html=1;outlineConnect=0;" vertex="1" parent="1">
          <mxGeometry x="731" y="280" width="30" height="60" as="geometry" />
        </mxCell>
        <mxCell id="FCP7pwKW39gZ4OMSLewV-28" value="" style="endArrow=none;html=1;rounded=0;entryX=0;entryY=0.5;entryDx=0;entryDy=0;exitX=1;exitY=0.3333333333333333;exitDx=0;exitDy=0;exitPerimeter=0;" edge="1" parent="1" source="FCP7pwKW39gZ4OMSLewV-26" target="FCP7pwKW39gZ4OMSLewV-32">
          <mxGeometry width="50" height="50" relative="1" as="geometry">
            <mxPoint x="-14" y="230" as="sourcePoint" />
            <mxPoint x="116" y="100" as="targetPoint" />
          </mxGeometry>
        </mxCell>
        <mxCell id="FCP7pwKW39gZ4OMSLewV-29" value="" style="endArrow=none;html=1;rounded=0;entryX=0;entryY=0.5;entryDx=0;entryDy=0;exitX=1;exitY=0.3333333333333333;exitDx=0;exitDy=0;exitPerimeter=0;" edge="1" parent="1" source="FCP7pwKW39gZ4OMSLewV-26" target="FCP7pwKW39gZ4OMSLewV-33">
          <mxGeometry width="50" height="50" relative="1" as="geometry">
            <mxPoint x="46" y="280" as="sourcePoint" />
            <mxPoint x="176" y="220" as="targetPoint" />
          </mxGeometry>
        </mxCell>
        <mxCell id="FCP7pwKW39gZ4OMSLewV-31" value="" style="endArrow=none;html=1;rounded=0;entryX=0;entryY=0.5;entryDx=0;entryDy=0;exitX=1;exitY=0.3333333333333333;exitDx=0;exitDy=0;exitPerimeter=0;" edge="1" parent="1" source="FCP7pwKW39gZ4OMSLewV-26" target="FCP7pwKW39gZ4OMSLewV-35">
          <mxGeometry width="50" height="50" relative="1" as="geometry">
            <mxPoint x="46" y="280" as="sourcePoint" />
            <mxPoint x="176" y="380" as="targetPoint" />
          </mxGeometry>
        </mxCell>
        <mxCell id="FCP7pwKW39gZ4OMSLewV-32" value="&lt;b&gt;Просмотр списка новостей&lt;br&gt;&lt;/b&gt;" style="ellipse;whiteSpace=wrap;html=1;" vertex="1" parent="1">
          <mxGeometry x="186" y="120" width="140" height="70" as="geometry" />
        </mxCell>
        <mxCell id="FCP7pwKW39gZ4OMSLewV-33" value="&lt;div&gt;&lt;b&gt;Просмотр списка игроков&lt;/b&gt;&lt;/div&gt;" style="ellipse;whiteSpace=wrap;html=1;" vertex="1" parent="1">
          <mxGeometry x="186" y="280" width="140" height="70" as="geometry" />
        </mxCell>
        <mxCell id="FCP7pwKW39gZ4OMSLewV-35" value="&lt;div&gt;Поиск&lt;/div&gt;" style="ellipse;whiteSpace=wrap;html=1;fontStyle=1" vertex="1" parent="1">
          <mxGeometry x="186" y="510" width="140" height="70" as="geometry" />
        </mxCell>
        <mxCell id="FCP7pwKW39gZ4OMSLewV-36" value="&lt;div&gt;Передача&lt;/div&gt;&lt;div&gt;идентификатора&lt;/div&gt;&lt;div&gt;элемента-&lt;span style=&quot;background-color: initial;&quot;&gt;контейнера&lt;/span&gt;&lt;/div&gt;&lt;div&gt;&lt;span style=&quot;background-color: initial;&quot;&gt;для запуска&lt;/span&gt;&lt;/div&gt;&lt;div&gt;&lt;span style=&quot;background-color: initial;&quot;&gt;приложений&lt;/span&gt;&lt;/div&gt;" style="ellipse;whiteSpace=wrap;html=1;" vertex="1" parent="1">
          <mxGeometry x="520" y="560" width="140" height="80" as="geometry" />
        </mxCell>
        <mxCell id="FCP7pwKW39gZ4OMSLewV-37" value="" style="endArrow=none;html=1;rounded=0;entryX=0;entryY=0.3333333333333333;entryDx=0;entryDy=0;exitX=1;exitY=0.5;exitDx=0;exitDy=0;entryPerimeter=0;" edge="1" parent="1" source="FCP7pwKW39gZ4OMSLewV-36" target="FCP7pwKW39gZ4OMSLewV-27">
          <mxGeometry width="50" height="50" relative="1" as="geometry">
            <mxPoint x="711" y="225" as="sourcePoint" />
            <mxPoint x="851" y="170" as="targetPoint" />
          </mxGeometry>
        </mxCell>
        <mxCell id="FCP7pwKW39gZ4OMSLewV-42" value="&lt;b&gt;Просмотр списка команд&lt;br&gt;&lt;/b&gt;" style="ellipse;whiteSpace=wrap;html=1;" vertex="1" parent="1">
          <mxGeometry x="186" y="200" width="140" height="70" as="geometry" />
        </mxCell>
        <mxCell id="FCP7pwKW39gZ4OMSLewV-43" value="" style="endArrow=none;html=1;rounded=0;entryX=0;entryY=0.5;entryDx=0;entryDy=0;exitX=1;exitY=0.3333333333333333;exitDx=0;exitDy=0;exitPerimeter=0;" edge="1" parent="1" source="FCP7pwKW39gZ4OMSLewV-26" target="FCP7pwKW39gZ4OMSLewV-42">
          <mxGeometry width="50" height="50" relative="1" as="geometry">
            <mxPoint x="46" y="370" as="sourcePoint" />
            <mxPoint x="136" y="165" as="targetPoint" />
          </mxGeometry>
        </mxCell>
        <mxCell id="FCP7pwKW39gZ4OMSLewV-44" value="&lt;div&gt;Поиск игрока&lt;/div&gt;" style="ellipse;whiteSpace=wrap;html=1;fontStyle=0" vertex="1" parent="1">
          <mxGeometry x="360" y="460" width="140" height="70" as="geometry" />
        </mxCell>
        <mxCell id="FCP7pwKW39gZ4OMSLewV-45" value="&lt;div&gt;Поиск команды&lt;/div&gt;" style="ellipse;whiteSpace=wrap;html=1;fontStyle=0" vertex="1" parent="1">
          <mxGeometry x="360" y="560" width="140" height="80" as="geometry" />
        </mxCell>
        <mxCell id="FCP7pwKW39gZ4OMSLewV-48" value="" style="endArrow=block;endSize=16;endFill=0;html=1;rounded=0;exitX=0;exitY=0.5;exitDx=0;exitDy=0;entryX=1;entryY=0.5;entryDx=0;entryDy=0;" edge="1" parent="1" source="FCP7pwKW39gZ4OMSLewV-45" target="FCP7pwKW39gZ4OMSLewV-35">
          <mxGeometry width="160" relative="1" as="geometry">
            <mxPoint x="376" y="570" as="sourcePoint" />
            <mxPoint x="536" y="570" as="targetPoint" />
          </mxGeometry>
        </mxCell>
        <mxCell id="FCP7pwKW39gZ4OMSLewV-49" value="" style="endArrow=block;endSize=16;endFill=0;html=1;rounded=0;exitX=0;exitY=0.5;exitDx=0;exitDy=0;entryX=1;entryY=0.5;entryDx=0;entryDy=0;" edge="1" parent="1" source="FCP7pwKW39gZ4OMSLewV-44" target="FCP7pwKW39gZ4OMSLewV-35">
          <mxGeometry width="160" relative="1" as="geometry">
            <mxPoint x="356" y="470" as="sourcePoint" />
            <mxPoint x="326" y="431" as="targetPoint" />
          </mxGeometry>
        </mxCell>
        <mxCell id="FCP7pwKW39gZ4OMSLewV-51" value="" style="edgeStyle=orthogonalEdgeStyle;rounded=0;orthogonalLoop=1;jettySize=auto;html=1;dashed=1;strokeWidth=1;" edge="1" parent="1" source="FCP7pwKW39gZ4OMSLewV-50" target="FCP7pwKW39gZ4OMSLewV-32">
          <mxGeometry relative="1" as="geometry" />
        </mxCell>
        <mxCell id="FCP7pwKW39gZ4OMSLewV-52" value="«extend»" style="edgeLabel;html=1;align=center;verticalAlign=middle;resizable=0;points=[];" vertex="1" connectable="0" parent="FCP7pwKW39gZ4OMSLewV-51">
          <mxGeometry x="0.352" y="1" relative="1" as="geometry">
            <mxPoint x="23" y="-1" as="offset" />
          </mxGeometry>
        </mxCell>
        <mxCell id="FCP7pwKW39gZ4OMSLewV-50" value="&lt;span style=&quot;font-weight: normal;&quot;&gt;Просмотр конкретной новости&lt;/span&gt;" style="ellipse;whiteSpace=wrap;html=1;fontStyle=1" vertex="1" parent="1">
          <mxGeometry x="426" y="120" width="140" height="70" as="geometry" />
        </mxCell>
        <mxCell id="FCP7pwKW39gZ4OMSLewV-53" value="" style="edgeStyle=orthogonalEdgeStyle;rounded=0;orthogonalLoop=1;jettySize=auto;html=1;dashed=1;strokeWidth=1;" edge="1" parent="1" source="FCP7pwKW39gZ4OMSLewV-55">
          <mxGeometry relative="1" as="geometry">
            <mxPoint x="326" y="235" as="targetPoint" />
          </mxGeometry>
        </mxCell>
        <mxCell id="FCP7pwKW39gZ4OMSLewV-54" value="«extend»" style="edgeLabel;html=1;align=center;verticalAlign=middle;resizable=0;points=[];" vertex="1" connectable="0" parent="FCP7pwKW39gZ4OMSLewV-53">
          <mxGeometry x="0.352" y="1" relative="1" as="geometry">
            <mxPoint x="22" y="-1" as="offset" />
          </mxGeometry>
        </mxCell>
        <mxCell id="FCP7pwKW39gZ4OMSLewV-55" value="&lt;span style=&quot;font-weight: normal;&quot;&gt;Просмотр профиля команды&lt;/span&gt;" style="ellipse;whiteSpace=wrap;html=1;fontStyle=1" vertex="1" parent="1">
          <mxGeometry x="426" y="200" width="140" height="70" as="geometry" />
        </mxCell>
        <mxCell id="FCP7pwKW39gZ4OMSLewV-57" value="" style="edgeStyle=orthogonalEdgeStyle;rounded=0;orthogonalLoop=1;jettySize=auto;html=1;dashed=1;strokeWidth=1;" edge="1" parent="1" source="FCP7pwKW39gZ4OMSLewV-59">
          <mxGeometry relative="1" as="geometry">
            <mxPoint x="326" y="315" as="targetPoint" />
          </mxGeometry>
        </mxCell>
        <mxCell id="FCP7pwKW39gZ4OMSLewV-58" value="«extend»" style="edgeLabel;html=1;align=center;verticalAlign=middle;resizable=0;points=[];" vertex="1" connectable="0" parent="FCP7pwKW39gZ4OMSLewV-57">
          <mxGeometry x="0.352" y="1" relative="1" as="geometry">
            <mxPoint x="22" y="-1" as="offset" />
          </mxGeometry>
        </mxCell>
        <mxCell id="FCP7pwKW39gZ4OMSLewV-59" value="&lt;span style=&quot;font-weight: normal;&quot;&gt;Просмотр профиля игрока&lt;/span&gt;" style="ellipse;whiteSpace=wrap;html=1;fontStyle=1" vertex="1" parent="1">
          <mxGeometry x="426" y="280" width="140" height="70" as="geometry" />
        </mxCell>
        <mxCell id="FCP7pwKW39gZ4OMSLewV-62" value="&lt;div&gt;&lt;b&gt;Просмотр списка матчей&lt;/b&gt;&lt;/div&gt;" style="ellipse;whiteSpace=wrap;html=1;" vertex="1" parent="1">
          <mxGeometry x="186" y="360" width="140" height="70" as="geometry" />
        </mxCell>
        <mxCell id="FCP7pwKW39gZ4OMSLewV-63" value="" style="edgeStyle=orthogonalEdgeStyle;rounded=0;orthogonalLoop=1;jettySize=auto;html=1;dashed=1;strokeWidth=1;entryX=1;entryY=0.5;entryDx=0;entryDy=0;" edge="1" parent="1" source="FCP7pwKW39gZ4OMSLewV-65" target="FCP7pwKW39gZ4OMSLewV-62">
          <mxGeometry relative="1" as="geometry">
            <mxPoint x="330" y="405" as="targetPoint" />
            <Array as="points" />
          </mxGeometry>
        </mxCell>
        <mxCell id="FCP7pwKW39gZ4OMSLewV-64" value="«extend»" style="edgeLabel;html=1;align=center;verticalAlign=middle;resizable=0;points=[];" vertex="1" connectable="0" parent="FCP7pwKW39gZ4OMSLewV-63">
          <mxGeometry x="0.352" y="1" relative="1" as="geometry">
            <mxPoint x="22" y="-1" as="offset" />
          </mxGeometry>
        </mxCell>
        <mxCell id="FCP7pwKW39gZ4OMSLewV-65" value="&lt;span style=&quot;font-weight: normal;&quot;&gt;Просмотр информации о матче&lt;/span&gt;" style="ellipse;whiteSpace=wrap;html=1;fontStyle=1" vertex="1" parent="1">
          <mxGeometry x="426" y="360" width="140" height="70" as="geometry" />
        </mxCell>
        <mxCell id="FCP7pwKW39gZ4OMSLewV-66" value="" style="endArrow=none;html=1;rounded=0;entryX=0;entryY=0.5;entryDx=0;entryDy=0;exitX=1;exitY=0.3333333333333333;exitDx=0;exitDy=0;exitPerimeter=0;" edge="1" parent="1" source="FCP7pwKW39gZ4OMSLewV-26" target="FCP7pwKW39gZ4OMSLewV-62">
          <mxGeometry width="50" height="50" relative="1" as="geometry">
            <mxPoint x="106" y="310" as="sourcePoint" />
            <mxPoint x="196" y="325" as="targetPoint" />
          </mxGeometry>
        </mxCell>
        <mxCell id="FCP7pwKW39gZ4OMSLewV-81" value="&lt;div&gt;Передача&lt;/div&gt;&lt;div&gt;данных для подключения к внешней системе&lt;/div&gt;" style="ellipse;whiteSpace=wrap;html=1;" vertex="1" parent="1">
          <mxGeometry x="520" y="455" width="140" height="80" as="geometry" />
        </mxCell>
        <mxCell id="FCP7pwKW39gZ4OMSLewV-82" value="" style="endArrow=none;html=1;rounded=0;entryX=0;entryY=0.3333333333333333;entryDx=0;entryDy=0;exitX=0.998;exitY=0.435;exitDx=0;exitDy=0;entryPerimeter=0;exitPerimeter=0;" edge="1" parent="1" source="FCP7pwKW39gZ4OMSLewV-81" target="FCP7pwKW39gZ4OMSLewV-27">
          <mxGeometry width="50" height="50" relative="1" as="geometry">
            <mxPoint x="676" y="680" as="sourcePoint" />
            <mxPoint x="747" y="380" as="targetPoint" />
          </mxGeometry>
        </mxCell>
      </root>
    </mxGraphModel>
  </diagram>
</mxfile>
